<svg width="17" height="20" viewBox="0 0 17 20" fill="none" xmlns="http://www.w3.org/2000/svg">
<path d="M9.41667 10.0007H12.1667L8.5 13.6673L4.83333 10.0007H7.58333V6.33399H9.41667V10.0007ZM11.25 2.66732H2.08333V17.334H14.9167V6.33399H11.25V2.66732ZM0.25 1.74332C0.25 1.24098 0.65975 0.833984 1.16575 0.833984H12.1667L16.75 5.41732V18.2442C16.7508 18.3646 16.728 18.484 16.6827 18.5955C16.6374 18.7071 16.5706 18.8086 16.4861 18.8943C16.4015 18.98 16.301 19.0483 16.1901 19.0951C16.0792 19.1419 15.9601 19.1665 15.8398 19.1673H1.16025C0.919513 19.1656 0.689099 19.0693 0.518783 18.8992C0.348466 18.729 0.25192 18.4987 0.25 18.258V1.74332Z" fill="white"/>
</svg>
