<svg width="20" height="20" viewBox="0 0 20 20" fill="none" xmlns="http://www.w3.org/2000/svg">
<path d="M3.33356 2.54605C4.36029 1.62633 5.56625 0.929039 6.87556 0.498047C7.24994 0.967071 7.72523 1.34568 8.26608 1.60571C8.80693 1.86575 9.39944 2.00054 9.99956 2.00005C10.5997 2.00054 11.1922 1.86575 11.733 1.60571C12.2739 1.34568 12.7492 0.967071 13.1236 0.498047C14.4329 0.929039 15.6388 1.62633 16.6656 2.54605C16.4471 3.1045 16.3572 3.70499 16.4025 4.30294C16.4479 4.90089 16.6273 5.48095 16.9276 6.00005C17.2272 6.52014 17.6402 6.966 18.1358 7.30447C18.6315 7.64294 19.1971 7.86531 19.7906 7.95505C20.0711 9.30395 20.0711 10.6961 19.7906 12.045C18.6306 12.223 17.5606 12.905 16.9276 14C16.6272 14.5193 16.4476 15.0995 16.4023 15.6977C16.3569 16.2958 16.4469 16.8965 16.6656 17.4551C15.6387 18.3744 14.4328 19.0714 13.1236 19.5021C12.7491 19.0332 12.2738 18.6548 11.7329 18.3949C11.1921 18.1351 10.5996 18.0004 9.99956 18.0011C9.39944 18.0006 8.80693 18.1353 8.26608 18.3954C7.72523 18.6554 7.24994 19.034 6.87556 19.5031C5.56633 19.0724 4.36038 18.3754 3.33356 17.4561C3.55221 16.8975 3.6422 16.2968 3.59684 15.6987C3.55148 15.1005 3.37194 14.5203 3.07156 14.001C2.77185 13.4811 2.35881 13.0355 1.86314 12.6972C1.36748 12.3589 0.801936 12.1367 0.208561 12.047C-0.0721245 10.6978 -0.0721245 9.30527 0.208561 7.95605C0.802026 7.86631 1.36763 7.64394 1.8633 7.30547C2.35897 6.967 2.77196 6.52114 3.07156 6.00105C3.37179 5.48195 3.55125 4.90189 3.5966 4.30394C3.64196 3.70599 3.55205 3.1055 3.33356 2.54705V2.54605ZM11.4996 12.5981C11.8435 12.4025 12.1454 12.1409 12.3878 11.8282C12.6302 11.5155 12.8083 11.1579 12.912 10.7761C13.0157 10.3943 13.0428 9.99576 12.9918 9.60342C12.9408 9.21108 12.8127 8.8327 12.6149 8.49007C12.417 8.14743 12.1534 7.84732 11.8391 7.60699C11.5248 7.36666 11.1661 7.19088 10.7836 7.08975C10.4011 6.98863 10.0024 6.96416 9.61039 7.01775C9.21839 7.07135 8.84087 7.20196 8.49956 7.40205C7.81614 7.8027 7.31894 8.45741 7.11645 9.22329C6.91396 9.98918 7.02263 10.8041 7.41874 11.4901C7.81485 12.1762 8.46624 12.6777 9.23077 12.8853C9.9953 13.0929 10.8109 12.9896 11.4996 12.5981Z" fill="white"/>
</svg>
