<svg width="26" height="27" viewBox="0 0 26 27" fill="none" xmlns="http://www.w3.org/2000/svg">
<path d="M23.4717 5.00057H24.4168C25.1532 5.00057 25.7501 5.59753 25.7501 6.3339V15.6672C25.7501 16.4036 25.1532 17.0005 24.4168 17.0005H21.7501L16.1924 9.21968C15.5292 8.29128 14.3489 7.88761 13.2561 8.21544L9.94242 9.20956C9.00278 9.49145 7.98424 9.23466 7.29054 8.54097L6.9002 8.15061C6.30524 7.55566 6.40332 6.56513 7.1034 6.09841L14.3048 1.29748C15.1834 0.711756 16.3248 0.699609 17.2157 1.26652L22.756 4.79211C22.9698 4.92826 23.2182 5.00057 23.4717 5.00057ZM4.45261 16.0602L2.29826 17.9453C1.66972 18.4952 1.69577 19.481 2.35252 19.9972L9.20686 25.3826C9.84696 25.8856 10.7844 25.7025 11.1882 24.9957L12.1268 23.3533C12.7001 22.35 12.562 21.0916 11.7846 20.2365L8.1818 16.2733C7.20438 15.1981 5.54613 15.1034 4.45261 16.0602ZM7.14393 3.66732H1.74984C1.01346 3.66732 0.416504 4.26428 0.416504 5.00065V15.0217C0.416504 15.5662 0.582837 16.0904 0.883424 16.5292C0.915304 16.499 0.947917 16.4693 0.981264 16.4401L3.13561 14.555C5.04926 12.8806 7.95121 13.0464 9.66168 14.928L13.2646 18.8912C14.6249 20.3874 14.8666 22.5897 13.8633 24.3456L12.9909 25.8724C13.7414 26.1568 14.5965 26.0926 15.3085 25.6654L21.1874 22.1381C21.8546 21.7377 22.0386 20.8534 21.5866 20.2201L14.5644 10.3821C14.3985 10.15 14.1034 10.0491 13.8302 10.1311L10.5166 11.1252C8.87218 11.6185 7.08973 11.1692 5.87578 9.95518L5.48542 9.56482C3.99804 8.07744 4.24324 5.60112 5.99345 4.4343L7.14393 3.66732Z" fill="#9E35EE"/>
</svg>
