<svg width="24" height="28" viewBox="0 0 24 28" fill="none" xmlns="http://www.w3.org/2000/svg">
<path d="M22.6667 27.3327H1.33333C0.979711 27.3327 0.640573 27.1922 0.390524 26.9422C0.140476 26.6921 0 26.353 0 25.9994V1.99935C0 1.64573 0.140476 1.30659 0.390524 1.05654C0.640573 0.806491 0.979711 0.666016 1.33333 0.666016H22.6667C23.0203 0.666016 23.3594 0.806491 23.6095 1.05654C23.8595 1.30659 24 1.64573 24 1.99935V25.9994C24 26.353 23.8595 26.6921 23.6095 26.9422C23.3594 27.1922 23.0203 27.3327 22.6667 27.3327ZM6.66667 7.33268V9.99935H17.3333V7.33268H6.66667ZM6.66667 12.666V15.3327H17.3333V12.666H6.66667ZM6.66667 17.9994V20.666H13.3333V17.9994H6.66667Z" fill="#9E35EE"/>
</svg>
