<svg width="29" height="29" viewBox="0 0 29 29" fill="none" xmlns="http://www.w3.org/2000/svg">
<path d="M13.033 0.800781L26.2316 2.68745L28.117 15.8874L15.861 28.1434C15.6109 28.3934 15.2719 28.5338 14.9183 28.5338C14.5647 28.5338 14.2257 28.3934 13.9756 28.1434L0.775636 14.9434C0.525674 14.6934 0.385254 14.3543 0.385254 14.0008C0.385254 13.6472 0.525674 13.3082 0.775636 13.0581L13.033 0.800781ZM16.8036 12.1154C17.0513 12.363 17.3453 12.5594 17.6689 12.6934C17.9925 12.8273 18.3392 12.8962 18.6894 12.8962C19.0396 12.8961 19.3864 12.8271 19.7099 12.693C20.0334 12.5589 20.3274 12.3625 20.575 12.1148C20.8226 11.8671 21.0189 11.5731 21.1529 11.2495C21.2868 10.926 21.3558 10.5792 21.3557 10.229C21.3556 9.87878 21.2866 9.53202 21.1525 9.2085C21.0185 8.88498 20.822 8.59103 20.5743 8.34345C20.3266 8.09586 20.0326 7.89948 19.709 7.76553C19.3855 7.63157 19.0387 7.56265 18.6885 7.56271C17.9812 7.56284 17.303 7.84392 16.803 8.34412C16.3029 8.84431 16.0221 9.52266 16.0222 10.2299C16.0224 10.9372 16.3034 11.6154 16.8036 12.1154Z" fill="#9E35EE"/>
</svg>
